<?xml version="1.0" standalone="no"?><!DOCTYPE svg PUBLIC "-//W3C//DTD SVG 1.1//EN" "http://www.w3.org/Graphics/SVG/1.1/DTD/svg11.dtd"><svg t="1717755442174" class="icon" viewBox="0 0 1024 1024" version="1.1" xmlns="http://www.w3.org/2000/svg" p-id="4325" xmlns:xlink="http://www.w3.org/1999/xlink" width="200" height="200"><path d="M884.363636 139.636364a116.363636 116.363636 0 0 1 116.363637 116.363636v535.272727a116.363636 116.363636 0 0 1-116.363637 116.363637H139.636364a116.363636 116.363636 0 0 1-116.363637-116.363637V256a116.363636 116.363636 0 0 1 116.363637-116.363636zM116.363636 269.661091V791.272727a23.272727 23.272727 0 0 0 23.272728 23.272728h744.727272a23.272727 23.272727 0 0 0 23.272728-23.272728V270.801455L581.282909 551.330909a93.090909 93.090909 0 0 1-115.618909 4.561455l-4.096-3.165091L116.363636 269.661091zM809.122909 232.727273H218.158545l302.429091 248.017454L809.122909 232.727273z" fill="#2c2c2c" p-id="4326"></path></svg>